<?xml version="1.0" encoding="iso-8859-1"?>
<!-- Uploaded to: SVG Repo, www.svgrepo.com, Generator: SVG Repo Mixer Tools -->
<svg height="800px" width="800px" version="1.1" id="Layer_1" xmlns="http://www.w3.org/2000/svg" xmlns:xlink="http://www.w3.org/1999/xlink" 
	 viewBox="0 0 352.846 352.846" xml:space="preserve">
<g id="XMLID_18_">
	<g id="XMLID_50_">
		<path id="XMLID_824_" style="fill:#E1A98C;" d="M275.909,283.677c26.39-24.059,11.154-120.469,11.154-142.407
			C287.063,59.796,244.317,0,176.423,0S65.783,59.796,65.783,141.269c0,21.938-15.236,118.348,11.154,142.407
			C113.696,317.19,239.15,317.19,275.909,283.677z"/>
		<path id="XMLID_827_" style="fill:#D2987B;" d="M287.063,141.269C287.063,59.796,244.317,0,176.423,0v308.811
			c40.553,0,81.106-8.378,99.486-25.135C302.299,259.617,287.063,163.207,287.063,141.269z"/>
	</g>
	<g id="XMLID_47_">
		<path id="XMLID_49_" style="fill:#AEC7EA;" d="M293.4,352.846H59.445v-40.688c0-44.943,31.347-81.376,76.29-81.376l40.688,40.688
			l40.688-40.688c44.943,0,76.29,36.433,76.29,81.376v40.688H293.4z"/>
		<path id="XMLID_828_" style="fill:#96B3D4;" d="M217.111,230.782l-40.688,40.688v81.375H293.4v-40.688
			C293.4,267.215,262.053,230.782,217.111,230.782z"/>
	</g>
	<g id="XMLID_44_">
		<path id="XMLID_829_" style="fill:#F3D8B6;" d="M219.612,261.298c0,0-14.458-18.417-14.458-81.376h-26.23h-5.002h-26.23
			c0,62.959-14.458,81.376-14.458,81.376c0,47.368,28.832,48.824,40.688,53.239v1.537c0,0,0.922-0.188,2.501-0.68
			c1.579,0.492,2.501,0.68,2.501,0.68v-1.537C190.779,310.123,219.612,308.666,219.612,261.298z"/>
		<path id="XMLID_830_" style="fill:#EEC8A2;" d="M205.154,179.923h-26.23h-2.501v135.471c1.579,0.492,2.501,0.68,2.501,0.68v-1.537
			c11.856-4.414,40.688-5.871,40.688-53.239C219.612,261.298,205.154,242.882,205.154,179.923z"/>
	</g>
	<g id="XMLID_41_">
		<path id="XMLID_831_" style="fill:#F3DBC4;" d="M150.799,83.886c-1.621-2.782-3.112-5.444-4.497-8.014
			c-6.833,14.832-21.684,32.741-33.939,40.88c0.879,21.938,4.362,41.704,8.404,49.167c9.043,16.694,29.221,38.956,55.657,38.956
			c26.431,0,46.607-22.262,55.652-38.956c3.788-6.994,7.087-24.794,8.21-45.06C230.472,120.294,169.239,115.533,150.799,83.886z"/>
		<path id="XMLID_832_" style="fill:#EDCEAE;" d="M176.423,105.724v99.151c0.001,0,0.001,0,0.002,0
			c26.431,0,46.607-22.262,55.652-38.957c3.788-6.994,7.087-24.794,8.21-45.061C233.452,120.465,201.388,118.018,176.423,105.724z"
			/>
	</g>
	<g id="XMLID_34_">
		<polygon id="XMLID_835_" style="fill:#367992;" points="205.372,271.678 147.474,271.678 101.139,321.925 101.139,352.846 
			251.707,352.846 251.707,321.925 		"/>
		<polygon id="XMLID_838_" style="fill:#2F697E;" points="205.372,271.678 176.423,271.678 176.423,352.846 251.707,352.846 
			251.707,321.925 		"/>
	</g>
	<g id="XMLID_19_">
		<path id="XMLID_839_" style="fill:#CC2F3F;" d="M211.643,230.541l-35.22,20.334l0,0l-35.22-20.334
			c-6.951-4.013-15.639,1.003-15.639,9.029v51.974c0,8.026,8.689,13.042,15.639,9.03l35.22-20.335l35.22,20.334
			c6.951,4.013,15.639-1.003,15.639-9.029V239.57C227.283,231.544,218.594,226.528,211.643,230.541z"/>
		<path id="XMLID_840_" style="fill:#B32A38;" d="M211.643,230.541l-35.22,20.334l0,0v29.364l35.22,20.334
			c6.951,4.013,15.639-1.003,15.639-9.029V239.57C227.283,231.544,218.594,226.528,211.643,230.541z"/>
	</g>
</g>
</svg>